<svg width="222" height="222" viewBox="0 0 222 222" fill="none" xmlns="http://www.w3.org/2000/svg">
<rect width="222" height="222" rx="40" fill="#37322F"/>
<path d="M91 180.182C74.4315 180.182 61 166.75 61 150.182V47C61 44.2386 63.2386 42 66 42H156.27C158.655 42 160.588 43.9333 160.588 46.3182C160.588 60.6274 148.988 72.2273 134.679 72.2273H103.514C100.753 72.2273 98.5142 74.4658 98.5142 77.2273V90.9773C98.5142 93.7387 100.753 95.9773 103.514 95.9773H150.46C153.222 95.9773 155.46 98.2158 155.46 100.977V121.205C155.46 123.966 153.222 126.205 150.46 126.205H103.514C100.753 126.205 98.5142 128.443 98.5142 131.205V144.955C98.5142 147.716 100.753 149.955 103.514 149.955H155.318C158.08 149.955 160.318 152.193 160.318 154.955V175.182C160.318 177.943 158.08 180.182 155.318 180.182H91Z" fill="white"/>
</svg>
